<svg xmlns="http://www.w3.org/2000/svg" xmlns:xlink="http://www.w3.org/1999/xlink" viewBox="0 0 24 24" version="1.1" width="48" height="48">
<g id="surface1">
<path style=" " d="M 4 2 C 2.894531 2 2 2.894531 2 4 L 2 20 C 2 21.105469 2.894531 22 4 22 L 20 22 C 21.105469 22 22 21.105469 22 20 L 22 4 C 22 2.894531 21.105469 2 20 2 Z M 10 4 C 13.3125 4 16 6.6875 16 10 C 16 11.21875 15.625 12.335938 15 13.28125 L 20 18.28125 L 18.28125 20 L 13.3125 15 C 12.367188 15.625 11.21875 16 10 16 C 6.6875 16 4 13.3125 4 10 C 4 6.6875 6.6875 4 10 4 Z M 10 6.03125 C 7.800781 6.03125 6.03125 7.800781 6.03125 10 C 6.03125 12.199219 7.800781 13.96875 10 13.96875 C 12.199219 13.96875 13.96875 12.199219 13.96875 10 C 13.96875 7.800781 12.199219 6.03125 10 6.03125 Z "/>
</g>
</svg>